<mxfile host="app.diagrams.net" modified="2024-03-01T01:38:26.824Z" agent="Mozilla/5.0 (Windows NT 10.0; Win64; x64) AppleWebKit/537.36 (KHTML, like Gecko) Chrome/122.0.0.0 Safari/537.36" etag="aqYU23-zQkVzdamoshbH" version="24.0.0" type="device">
  <diagram name="Page-1" id="-sTbkG_zjCb_b7KuPNSA">
    <mxGraphModel dx="1562" dy="865" grid="1" gridSize="10" guides="1" tooltips="1" connect="1" arrows="1" fold="1" page="1" pageScale="1" pageWidth="750" pageHeight="880" math="0" shadow="0">
      <root>
        <mxCell id="0" />
        <mxCell id="1" parent="0" />
        <mxCell id="Q9Bwu8sAiogtW2NcdfNH-1" value="Utilisateur" style="shape=umlActor;verticalLabelPosition=bottom;verticalAlign=top;html=1;outlineConnect=0;" parent="1" vertex="1">
          <mxGeometry x="20" y="310" width="30" height="60" as="geometry" />
        </mxCell>
        <mxCell id="Q9Bwu8sAiogtW2NcdfNH-15" value="" style="endArrow=classic;html=1;rounded=0;noEdgeStyle=1;" parent="1" source="Q9Bwu8sAiogtW2NcdfNH-1" target="Q9Bwu8sAiogtW2NcdfNH-7" edge="1">
          <mxGeometry width="50" height="50" relative="1" as="geometry">
            <mxPoint x="583" y="347" as="sourcePoint" />
            <mxPoint x="633" y="297" as="targetPoint" />
          </mxGeometry>
        </mxCell>
        <mxCell id="Q9Bwu8sAiogtW2NcdfNH-16" value="" style="endArrow=classic;html=1;rounded=0;noEdgeStyle=1;" parent="1" source="Q9Bwu8sAiogtW2NcdfNH-1" target="Q9Bwu8sAiogtW2NcdfNH-6" edge="1">
          <mxGeometry width="50" height="50" relative="1" as="geometry">
            <mxPoint x="593" y="357" as="sourcePoint" />
            <mxPoint x="643" y="307" as="targetPoint" />
          </mxGeometry>
        </mxCell>
        <mxCell id="Q9Bwu8sAiogtW2NcdfNH-17" value="" style="endArrow=classic;html=1;rounded=0;noEdgeStyle=1;" parent="1" source="Q9Bwu8sAiogtW2NcdfNH-1" target="Q9Bwu8sAiogtW2NcdfNH-3" edge="1">
          <mxGeometry width="50" height="50" relative="1" as="geometry">
            <mxPoint x="603" y="367" as="sourcePoint" />
            <mxPoint x="653" y="317" as="targetPoint" />
          </mxGeometry>
        </mxCell>
        <mxCell id="Q9Bwu8sAiogtW2NcdfNH-18" value="" style="endArrow=classic;html=1;rounded=0;noEdgeStyle=1;" parent="1" source="Q9Bwu8sAiogtW2NcdfNH-1" target="Q9Bwu8sAiogtW2NcdfNH-4" edge="1">
          <mxGeometry width="50" height="50" relative="1" as="geometry">
            <mxPoint x="613" y="377" as="sourcePoint" />
            <mxPoint x="663" y="327" as="targetPoint" />
          </mxGeometry>
        </mxCell>
        <mxCell id="Q9Bwu8sAiogtW2NcdfNH-19" value="" style="endArrow=classic;html=1;rounded=0;noEdgeStyle=1;" parent="1" source="Q9Bwu8sAiogtW2NcdfNH-1" target="Q9Bwu8sAiogtW2NcdfNH-5" edge="1">
          <mxGeometry width="50" height="50" relative="1" as="geometry">
            <mxPoint x="623" y="387" as="sourcePoint" />
            <mxPoint x="673" y="337" as="targetPoint" />
          </mxGeometry>
        </mxCell>
        <mxCell id="Q9Bwu8sAiogtW2NcdfNH-27" value="" style="endArrow=classic;html=1;rounded=0;noEdgeStyle=1;" parent="1" source="Q9Bwu8sAiogtW2NcdfNH-1" target="Q9Bwu8sAiogtW2NcdfNH-8" edge="1">
          <mxGeometry width="50" height="50" relative="1" as="geometry">
            <mxPoint x="703" y="467" as="sourcePoint" />
            <mxPoint x="753" y="417" as="targetPoint" />
          </mxGeometry>
        </mxCell>
        <mxCell id="Q9Bwu8sAiogtW2NcdfNH-34" value="" style="endArrow=classic;html=1;rounded=0;noEdgeStyle=1;" parent="1" source="Q9Bwu8sAiogtW2NcdfNH-1" target="Q9Bwu8sAiogtW2NcdfNH-30" edge="1">
          <mxGeometry width="50" height="50" relative="1" as="geometry">
            <mxPoint x="786" y="359" as="sourcePoint" />
            <mxPoint x="836" y="309" as="targetPoint" />
          </mxGeometry>
        </mxCell>
        <mxCell id="Q9Bwu8sAiogtW2NcdfNH-37" value="" style="endArrow=classic;html=1;rounded=0;noEdgeStyle=1;" parent="1" source="Q9Bwu8sAiogtW2NcdfNH-1" target="Q9Bwu8sAiogtW2NcdfNH-35" edge="1">
          <mxGeometry width="50" height="50" relative="1" as="geometry">
            <mxPoint x="356" y="579" as="sourcePoint" />
            <mxPoint x="406" y="529" as="targetPoint" />
          </mxGeometry>
        </mxCell>
        <mxCell id="8HWl6NHsIru3C9AHizpd-1" value="Visiteur" style="shape=umlActor;verticalLabelPosition=bottom;verticalAlign=top;html=1;outlineConnect=0;" parent="1" vertex="1">
          <mxGeometry x="20" y="610" width="30" height="60" as="geometry" />
        </mxCell>
        <mxCell id="8HWl6NHsIru3C9AHizpd-4" value="" style="endArrow=classic;html=1;rounded=0;" parent="1" source="8HWl6NHsIru3C9AHizpd-1" target="Q9Bwu8sAiogtW2NcdfNH-6" edge="1">
          <mxGeometry width="50" height="50" relative="1" as="geometry">
            <mxPoint x="30" y="430" as="sourcePoint" />
            <mxPoint x="80" y="380" as="targetPoint" />
          </mxGeometry>
        </mxCell>
        <mxCell id="8HWl6NHsIru3C9AHizpd-5" value="" style="endArrow=classic;html=1;rounded=0;" parent="1" source="8HWl6NHsIru3C9AHizpd-1" target="Q9Bwu8sAiogtW2NcdfNH-29" edge="1">
          <mxGeometry width="50" height="50" relative="1" as="geometry">
            <mxPoint x="30" y="440" as="sourcePoint" />
            <mxPoint x="80" y="390" as="targetPoint" />
          </mxGeometry>
        </mxCell>
        <mxCell id="8HWl6NHsIru3C9AHizpd-6" value="" style="endArrow=classic;html=1;rounded=0;" parent="1" source="8HWl6NHsIru3C9AHizpd-1" target="Q9Bwu8sAiogtW2NcdfNH-35" edge="1">
          <mxGeometry width="50" height="50" relative="1" as="geometry">
            <mxPoint x="50" y="460" as="sourcePoint" />
            <mxPoint x="100" y="410" as="targetPoint" />
          </mxGeometry>
        </mxCell>
        <mxCell id="Q9Bwu8sAiogtW2NcdfNH-52" value="" style="group;fillColor=none;rounded=1;strokeColor=default;" parent="1" vertex="1" connectable="0">
          <mxGeometry x="190" width="560" height="880" as="geometry" />
        </mxCell>
        <mxCell id="Q9Bwu8sAiogtW2NcdfNH-3" value="Interagir avec une publications" style="ellipse;whiteSpace=wrap;html=1;" parent="Q9Bwu8sAiogtW2NcdfNH-52" vertex="1">
          <mxGeometry y="70" width="120" height="40" as="geometry" />
        </mxCell>
        <mxCell id="Q9Bwu8sAiogtW2NcdfNH-45" value="Aimer une publication" style="ellipse;whiteSpace=wrap;html=1;" parent="Q9Bwu8sAiogtW2NcdfNH-52" vertex="1">
          <mxGeometry x="220" width="120" height="40" as="geometry" />
        </mxCell>
        <mxCell id="Q9Bwu8sAiogtW2NcdfNH-46" value="Ajouter un commentaire" style="ellipse;whiteSpace=wrap;html=1;" parent="Q9Bwu8sAiogtW2NcdfNH-52" vertex="1">
          <mxGeometry x="220" y="70" width="120" height="40" as="geometry" />
        </mxCell>
        <mxCell id="Q9Bwu8sAiogtW2NcdfNH-49" value="Supprimer un commentaire" style="ellipse;whiteSpace=wrap;html=1;" parent="Q9Bwu8sAiogtW2NcdfNH-52" vertex="1">
          <mxGeometry x="220" y="140" width="120" height="40" as="geometry" />
        </mxCell>
        <mxCell id="Q9Bwu8sAiogtW2NcdfNH-4" value="Gerer une publication" style="ellipse;whiteSpace=wrap;html=1;" parent="Q9Bwu8sAiogtW2NcdfNH-52" vertex="1">
          <mxGeometry x="220" y="240" width="120" height="40" as="geometry" />
        </mxCell>
        <mxCell id="Q9Bwu8sAiogtW2NcdfNH-38" value="Créer une publication" style="ellipse;whiteSpace=wrap;html=1;" parent="Q9Bwu8sAiogtW2NcdfNH-52" vertex="1">
          <mxGeometry y="240" width="120" height="40" as="geometry" />
        </mxCell>
        <mxCell id="Q9Bwu8sAiogtW2NcdfNH-40" value="Supprimer une publication" style="ellipse;whiteSpace=wrap;html=1;" parent="Q9Bwu8sAiogtW2NcdfNH-52" vertex="1">
          <mxGeometry x="440" y="240" width="120" height="40" as="geometry" />
        </mxCell>
        <mxCell id="Q9Bwu8sAiogtW2NcdfNH-5" value="Gerer son profile" style="ellipse;whiteSpace=wrap;html=1;" parent="Q9Bwu8sAiogtW2NcdfNH-52" vertex="1">
          <mxGeometry y="340" width="120" height="40" as="geometry" />
        </mxCell>
        <mxCell id="Q9Bwu8sAiogtW2NcdfNH-6" value="Visiter la galerie" style="ellipse;whiteSpace=wrap;html=1;" parent="Q9Bwu8sAiogtW2NcdfNH-52" vertex="1">
          <mxGeometry y="440" width="120" height="40" as="geometry" />
        </mxCell>
        <mxCell id="Q9Bwu8sAiogtW2NcdfNH-35" value="Rechercher dans la galerie" style="ellipse;whiteSpace=wrap;html=1;" parent="Q9Bwu8sAiogtW2NcdfNH-52" vertex="1">
          <mxGeometry x="220" y="540" width="120" height="40" as="geometry" />
        </mxCell>
        <mxCell id="Q9Bwu8sAiogtW2NcdfNH-7" value="R&lt;span style=&quot;background-color: initial;&quot;&gt;ecommandation personnalisée dans &quot;Mon Bar&quot;&lt;/span&gt;" style="ellipse;whiteSpace=wrap;html=1;" parent="Q9Bwu8sAiogtW2NcdfNH-52" vertex="1">
          <mxGeometry y="540" width="120" height="40" as="geometry" />
        </mxCell>
        <mxCell id="Q9Bwu8sAiogtW2NcdfNH-8" value="Connection" style="ellipse;whiteSpace=wrap;html=1;" parent="Q9Bwu8sAiogtW2NcdfNH-52" vertex="1">
          <mxGeometry y="640" width="120" height="40" as="geometry" />
        </mxCell>
        <mxCell id="Q9Bwu8sAiogtW2NcdfNH-29" value="Inscription" style="ellipse;whiteSpace=wrap;html=1;" parent="Q9Bwu8sAiogtW2NcdfNH-52" vertex="1">
          <mxGeometry y="740" width="120" height="40" as="geometry" />
        </mxCell>
        <mxCell id="Q9Bwu8sAiogtW2NcdfNH-30" value="Suppression du compte" style="ellipse;whiteSpace=wrap;html=1;" parent="Q9Bwu8sAiogtW2NcdfNH-52" vertex="1">
          <mxGeometry y="840" width="120" height="40" as="geometry" />
        </mxCell>
        <mxCell id="Q9Bwu8sAiogtW2NcdfNH-47" value="" style="endArrow=none;dashed=1;html=1;rounded=0;noEdgeStyle=1;orthogonal=1;" parent="Q9Bwu8sAiogtW2NcdfNH-52" source="Q9Bwu8sAiogtW2NcdfNH-3" target="Q9Bwu8sAiogtW2NcdfNH-45" edge="1">
          <mxGeometry width="50" height="50" relative="1" as="geometry">
            <mxPoint x="716" y="199" as="sourcePoint" />
            <mxPoint x="766" y="149" as="targetPoint" />
            <Array as="points">
              <mxPoint x="132" y="80" />
              <mxPoint x="208" y="20" />
            </Array>
          </mxGeometry>
        </mxCell>
        <mxCell id="Q9Bwu8sAiogtW2NcdfNH-48" value="" style="endArrow=none;dashed=1;html=1;rounded=0;noEdgeStyle=1;orthogonal=1;" parent="Q9Bwu8sAiogtW2NcdfNH-52" source="Q9Bwu8sAiogtW2NcdfNH-3" target="Q9Bwu8sAiogtW2NcdfNH-46" edge="1">
          <mxGeometry width="50" height="50" relative="1" as="geometry">
            <mxPoint x="766" y="159" as="sourcePoint" />
            <mxPoint x="816" y="109" as="targetPoint" />
            <Array as="points">
              <mxPoint x="134" y="90" />
              <mxPoint x="208" y="90" />
            </Array>
          </mxGeometry>
        </mxCell>
        <mxCell id="Q9Bwu8sAiogtW2NcdfNH-50" value="" style="endArrow=none;dashed=1;html=1;rounded=0;noEdgeStyle=1;orthogonal=1;" parent="Q9Bwu8sAiogtW2NcdfNH-52" source="Q9Bwu8sAiogtW2NcdfNH-3" target="Q9Bwu8sAiogtW2NcdfNH-49" edge="1">
          <mxGeometry width="50" height="50" relative="1" as="geometry">
            <mxPoint x="756" y="209" as="sourcePoint" />
            <mxPoint x="806" y="159" as="targetPoint" />
            <Array as="points">
              <mxPoint x="132" y="100" />
              <mxPoint x="208" y="160" />
            </Array>
          </mxGeometry>
        </mxCell>
        <mxCell id="Q9Bwu8sAiogtW2NcdfNH-43" value="" style="endArrow=none;dashed=1;html=1;rounded=0;noEdgeStyle=1;orthogonal=1;" parent="Q9Bwu8sAiogtW2NcdfNH-52" source="Q9Bwu8sAiogtW2NcdfNH-38" target="Q9Bwu8sAiogtW2NcdfNH-4" edge="1">
          <mxGeometry width="50" height="50" relative="1" as="geometry">
            <mxPoint x="746" y="179" as="sourcePoint" />
            <mxPoint x="1016" y="269" as="targetPoint" />
            <Array as="points">
              <mxPoint x="132" y="260" />
              <mxPoint x="208" y="260" />
            </Array>
          </mxGeometry>
        </mxCell>
        <mxCell id="Q9Bwu8sAiogtW2NcdfNH-44" value="" style="endArrow=none;dashed=1;html=1;rounded=0;noEdgeStyle=1;orthogonal=1;" parent="Q9Bwu8sAiogtW2NcdfNH-52" source="Q9Bwu8sAiogtW2NcdfNH-4" target="Q9Bwu8sAiogtW2NcdfNH-40" edge="1">
          <mxGeometry width="50" height="50" relative="1" as="geometry">
            <mxPoint x="1506" y="339" as="sourcePoint" />
            <mxPoint x="1556" y="289" as="targetPoint" />
            <Array as="points">
              <mxPoint x="352" y="260" />
              <mxPoint x="428" y="260" />
            </Array>
          </mxGeometry>
        </mxCell>
        <mxCell id="Q9Bwu8sAiogtW2NcdfNH-42" value="" style="endArrow=none;dashed=1;html=1;dashPattern=1 3;strokeWidth=2;rounded=0;noEdgeStyle=1;orthogonal=1;" parent="Q9Bwu8sAiogtW2NcdfNH-52" source="Q9Bwu8sAiogtW2NcdfNH-7" target="Q9Bwu8sAiogtW2NcdfNH-35" edge="1">
          <mxGeometry width="50" height="50" relative="1" as="geometry">
            <mxPoint x="96" y="349" as="sourcePoint" />
            <mxPoint x="146" y="299" as="targetPoint" />
            <Array as="points">
              <mxPoint x="132" y="560" />
              <mxPoint x="208" y="560" />
            </Array>
          </mxGeometry>
        </mxCell>
      </root>
    </mxGraphModel>
  </diagram>
</mxfile>
